<svg id="Layer_1" data-name="Layer 1" xmlns="http://www.w3.org/2000/svg" viewBox="0 0 240 78"><title>Untitled-3</title><polyline points="1.5 58.83 15.17 71.83 17.5 56.83 29.17 47.5 34.83 53.5 38.17 49.5 42.17 58.17 47.5 51.17 52.5 64.5 66.5 67.83 76.17 76.5 87.83 56.83 90.83 71.17 99.83 60.17 109.17 72.83 121.83 55.5 121.5 40.83 128.83 48.83 138.83 47.17 144.17 50.5 147.5 57.83 158.5 50.83 170.83 30.17 189.17 20.17 190.5 26.17 196.83 31.83 209.83 29.83 209.17 25.17 218.5 9.17 224.17 12.17 230.83 6.83 235.83 10.83 238.5 1.5" style="fill:none;stroke:#fff;stroke-linecap:round;stroke-linejoin:round;stroke-width:3px"/></svg>